<svg width="40" height="40" viewBox="0 0 40 40" fill="none" xmlns="http://www.w3.org/2000/svg">
<path d="M31.25 22.5H20.1562L23.475 19.1797C24.6555 19.7068 25.9322 19.9845 27.225 19.9953C28.7129 19.9986 30.1728 19.5909 31.4437 18.8172C35.1937 16.5406 37.225 11.35 36.8406 4.93125C36.8135 4.47307 36.6193 4.04076 36.2947 3.71621C35.9702 3.39167 35.5379 3.19743 35.0797 3.17031C28.6594 2.79375 23.4687 4.80938 21.1937 8.56719C19.75 10.9484 19.6312 13.7859 20.8297 16.5359L18.75 18.5938L17.0094 16.8547C17.7812 14.8406 17.6344 12.7734 16.5781 11.0172C14.8437 8.16406 10.9562 6.625 6.17031 6.90781C5.71185 6.93456 5.27916 7.12863 4.95429 7.45322C4.62942 7.7778 4.43496 8.21032 4.40781 8.66875C4.12656 13.4563 5.65781 17.3469 8.52031 19.0766C9.50842 19.6799 10.6438 19.9989 11.8016 19.9984C12.6738 19.9928 13.5376 19.827 14.35 19.5094L16.0937 21.25L14.8437 22.5H8.74999C8.25271 22.5 7.7758 22.6975 7.42417 23.0492C7.07254 23.4008 6.87499 23.8777 6.87499 24.375C6.87499 24.8723 7.07254 25.3492 7.42417 25.7008C7.7758 26.0525 8.25271 26.25 8.74999 26.25H9.88593L11.7031 34.4281C11.8545 35.1236 12.2399 35.746 12.7951 36.1913C13.3502 36.6367 14.0414 36.878 14.7531 36.875H25.2484C25.9602 36.8783 26.6515 36.6371 27.2068 36.1917C27.762 35.7463 28.1473 35.1237 28.2984 34.4281L30.1156 26.25H31.25C31.7473 26.25 32.2242 26.0525 32.5758 25.7008C32.9275 25.3492 33.125 24.8723 33.125 24.375C33.125 23.8777 32.9275 23.4008 32.5758 23.0492C32.2242 22.6975 31.7473 22.5 31.25 22.5ZM24.3906 10.5094C25.75 8.26406 28.9516 6.95313 33.125 6.875C33.05 11.0453 31.7391 14.2469 29.4922 15.6078C28.0187 16.5 26.2969 16.4641 24.4922 15.5109C23.5328 13.7047 23.4984 11.9828 24.3906 10.5094ZM13.3609 15.8594C12.5437 16.2547 11.4859 16.4844 10.4641 15.8703C9.14062 15.0687 8.30624 13.1391 8.15156 10.6516C10.6406 10.8078 12.5687 11.6391 13.3703 12.9625C13.9859 13.9813 13.75 15.0422 13.3609 15.8594ZM24.7469 33.125H15.2531L13.7266 26.25H26.275L24.7469 33.125Z" fill="#262F22"/>
</svg>
